<svg width="273" height="120" viewBox="0 0 273 120" fill="none" xmlns="http://www.w3.org/2000/svg">
<path fill-rule="evenodd" clip-rule="evenodd" d="M205.043 47.6276C217.342 53.7098 222.444 68.4842 216.439 80.6276L208.219 97.2485C206.754 100.212 203.132 101.411 200.131 99.927L183.297 91.6019C170.998 85.5197 165.896 70.7453 171.901 58.6019C174.451 53.4444 178.595 49.5913 183.461 47.3305L182.383 41.454C181.869 39.9671 182.578 40.9035 184.072 40.409C185.565 39.9145 186.279 38.0404 186.793 39.5274L188.869 45.5397C194.138 44.4446 199.819 45.0443 205.043 47.6276ZM192.781 74.3181L183.461 47.3305C185.17 46.492 187.261 45.8346 189.139 45.4852L198.189 72.5271C198.702 74.0141 197.908 75.6206 196.414 76.1151C194.921 76.6096 193.294 75.8051 192.781 74.3181Z" fill="#60712F"/>
<path d="M197.447 41.454C197.539 41.2535 197.634 41.0539 197.733 40.8549C203.276 29.6458 216.973 25.1103 228.325 30.7247L243.696 38.3258C246.56 39.7422 247.748 43.1827 246.349 46.0105L238.845 61.1862C235.556 67.8372 229.396 72.1388 222.558 73.3643C223.369 66.8297 221.835 60.2288 218.351 54.7072L226.449 52.0257C227.942 51.5312 228.736 49.9249 228.223 48.4379C227.709 46.9508 226.083 46.1464 224.589 46.6409L214.593 49.9508C212.371 47.6797 209.731 45.7359 206.716 44.2449C203.716 42.7614 200.585 41.8448 197.447 41.454Z" fill="#ADC178"/>
<path d="M243.766 85.7222C247.347 78.481 246.26 70.1341 241.664 64.0349C237.446 71.6027 229.934 76.321 221.774 77.3129C221.307 79.0102 220.673 80.6867 219.865 82.3219L214.047 94.0853C214.587 94.4144 215.146 94.7227 215.723 95.0083L229.629 101.885C232.356 103.234 235.645 102.145 236.976 99.4527L243.766 85.7222Z" fill="black"/>
<path d="M162.306 52.6154L172.786 17.0052H179.857L198.28 72.4872C198.28 72.4872 199.075 75.2167 196.69 76.0642C193.908 77.0528 192.716 74.4744 192.716 74.4744L183.177 47.4488L169.733 47.9861L168.512 52.6154H162.306ZM171.259 42.2376H181.892L176.347 23.0589L171.259 42.2376Z" fill="#274029"/>
<path d="M149.89 52.6154V46.8669H152.179V22.7537H149.89V17.0052H160.522V22.7537H158.233V46.8669H160.522V52.6154H149.89Z" fill="#274029"/>
<path d="M120.114 52.6154L123.93 22.7537H120.114V17.0052H131.459C142.752 17.0052 148.094 25.5516 148.094 34.3016C148.094 43.3568 142.345 52.6154 131.459 52.6154H120.114ZM126.931 46.8669H131.51C138.174 46.8669 141.837 40.4571 141.837 34.2507C141.837 28.4005 138.581 22.7537 131.51 22.7537H129.983L126.931 46.8669Z" fill="#274029"/>
<path d="M90.2212 52.6154L100.701 17.0052H107.772L119.116 52.6154H112.808L111.486 47.9861H97.6485L96.4275 52.6154H90.2212ZM99.1746 42.2376H109.807L104.262 23.0589L99.1746 42.2376Z" fill="#274029"/>
<path d="M75.8153 53.1242C66.2005 53.1242 57.7049 45.8495 57.7049 34.8612C57.7049 23.7711 66.2514 16.4965 75.7135 16.4965C81.462 16.4965 86.5492 18.7857 90.0085 23.5676L85.3792 27.6883C83.1917 24.0764 79.7324 22.4485 75.8153 22.4485C69.5072 22.4485 63.9621 27.2304 63.9621 34.8612C63.9621 42.3902 69.6089 47.1722 75.8153 47.1722C79.885 47.1722 83.1917 45.1373 85.3792 41.7797L90.212 45.6969C86.9053 50.6314 81.6655 53.1242 75.8153 53.1242Z" fill="#274029"/>
<path d="M33.3043 52.6154V17.0052H46.4801C53.4495 17.0052 56.9088 21.7363 56.9088 26.4165C56.9088 31.0967 53.5004 35.8786 46.6836 35.8786H39.3581V37.4048H48.2097L50.8551 46.8669H55.4844V52.6154H46.3784V52.4119L43.7839 43.1533H39.3581V52.6154H33.3043ZM39.3581 30.1301H46.531C49.2781 30.1301 50.6516 28.2987 50.6516 26.4165C50.6516 24.5851 49.2781 22.7537 46.531 22.7537H39.3581V30.1301Z" fill="#274029"/>
<path d="M0.1026 52.6154L11.5996 17.0052H18.6708L31.0327 52.6154H24.7245L22.0283 44.1707H8.80168L6.30896 52.6154H0.1026ZM10.5313 38.4222H20.1461L15.1607 22.8554L10.5313 38.4222Z" fill="#274029"/>
</svg>
